<svg width="500" height="281" viewBox="0 0 500 281" fill="none" xmlns="http://www.w3.org/2000/svg">
<g clip-path="url(#clip0_2972_2)">
<path opacity="0.3" d="M339.2 280.999C340.913 279.984 342.608 278.937 344.284 277.856C365.653 264.069 383.991 243.757 390.046 218.985C396.102 194.214 387.435 165.031 365.738 151.774C346.873 140.248 322.718 142.407 301.472 148.447C280.224 154.485 259.757 164.031 237.792 166.317C211.778 169.024 183.887 161.601 160.262 172.867C134.04 185.37 122.22 219.539 130.715 247.416C134.61 260.194 142.047 271.45 151.655 280.648L339.198 281.001L339.2 280.999Z" fill="#EBEBFF"/>
<path opacity="0.6" d="M175.995 280.893L175.916 280.843C174.242 279.773 172.583 278.669 170.987 277.562C147.694 261.375 131.935 239.521 126.613 216.025C120.353 188.389 130.312 158.776 150.292 145.618C165.864 135.363 186.871 134.174 212.732 142.084C219.457 144.142 226.206 146.626 232.734 149.032C246.142 153.971 260.005 159.079 274.268 160.672C283.097 161.656 292.3 161.337 301.201 161.024C317.57 160.45 334.494 159.857 349.377 167.501C373.844 180.062 386.724 215.085 378.089 245.567C374.361 258.725 366.781 269.136 352.741 280.378L352.654 280.446H352.544L175.995 280.895V280.893ZM181.79 137.566C169.751 137.566 159.336 140.43 150.645 146.153C130.878 159.17 121.035 188.496 127.239 215.881C132.525 239.218 148.193 260.935 171.353 277.03C172.917 278.118 174.54 279.199 176.182 280.246L352.433 279.799C366.304 268.673 373.796 258.378 377.475 245.385C386.03 215.182 373.294 180.499 349.085 168.069C334.349 160.502 317.509 161.094 301.223 161.662C292.3 161.976 283.075 162.299 274.198 161.307C259.856 159.706 245.955 154.585 232.513 149.632C225.995 147.231 219.254 144.748 212.545 142.697C201.359 139.274 191.09 137.566 181.79 137.566Z" fill="#9192FF"/>
<path d="M418.488 267.106C412.186 267.106 407.061 262.297 407.061 256.386C407.061 250.475 412.188 245.666 418.488 245.666C424.788 245.666 429.915 250.475 429.915 256.386C429.915 262.297 424.788 267.106 418.488 267.106ZM418.488 249.661C414.382 249.661 411.04 252.677 411.04 256.384C411.04 260.092 414.382 263.108 418.488 263.108C422.594 263.108 425.936 260.092 425.936 256.384C425.936 252.677 422.594 249.661 418.488 249.661Z" fill="#3335CF"/>
<path d="M414.46 280.376H389.452L385.177 236.801H418.736L414.46 280.376Z" fill="white"/>
<path d="M414.847 280.808H389.064L384.704 236.371H419.207L414.847 280.808ZM389.838 279.949H414.072L418.263 237.23H385.648L389.838 279.949Z" fill="#3335CF"/>
<path d="M410.108 276.756H393.802L391.014 249.438H412.896L410.108 276.756Z" fill="#EBEBFF"/>
<path d="M98.6679 107.066H94.0322V106.207H98.6679C99.7186 106.207 100.747 106.021 101.723 105.655L102.021 106.46C100.95 106.862 99.8213 107.064 98.6679 107.064V107.066ZM89.3985 107.066H84.7628V106.207H89.3985V107.066ZM80.1271 107.066H75.4915V106.207H80.1271V107.066ZM70.8578 107.066H66.2221V106.207H70.8578V107.066ZM61.5884 107.066H56.9527V106.207H61.5884V107.066ZM52.317 107.066H47.6814V106.207H52.317V107.066ZM43.0477 107.066H38.412V106.207H43.0477V107.066ZM33.7783 107.066H29.1426V106.207H33.7783V107.066ZM24.509 107.066H19.8733V106.207H24.509V107.066ZM15.2376 107.066H10.6019V106.207H15.2376V107.066ZM5.89777 106.327C4.40622 105.7 3.08375 104.693 2.07328 103.416L2.74357 102.882C3.66346 104.046 4.86717 104.964 6.22788 105.534L5.89777 106.327ZM105.955 103.701L105.304 103.141C106.269 102.013 106.935 100.65 107.229 99.2007L108.066 99.3726C107.742 100.963 107.011 102.461 105.953 103.701H105.955ZM0.126812 99.0107C0.0422707 98.4892 0 97.9595 0 97.4319V94.2925H0.855479V97.4319C0.855479 97.913 0.893723 98.3962 0.972226 98.8712L0.128825 99.0107H0.126812ZM108.263 94.6463H107.408V89.9907H108.263V94.6463ZM0.855479 89.637H0V84.9814H0.855479V89.637ZM108.263 85.3372H107.408V80.6817H108.263V85.3372ZM0.855479 80.3279H0V75.6724H0.855479V80.3279ZM108.263 76.0262H107.408V71.3706H108.263V76.0262ZM0.855479 71.0189H0V66.3633H0.855479V71.0189ZM108.263 66.7171H107.408V62.0616H108.263V66.7171ZM0.855479 61.7078H0V57.0523H0.855479V61.7078ZM108.263 57.408H107.408V52.7525H108.263V57.408ZM0.855479 52.3987H0V47.7432H0.855479V52.3987ZM108.263 48.099H107.408V43.4435H108.263V48.099ZM0.855479 43.0897H0V38.4342H0.855479V43.0897ZM108.263 38.7879H107.408V34.1324H108.263V38.7879ZM0.855479 33.7786H0V32.6365C0 31.3973 0.231482 30.1904 0.688409 29.0503L1.48149 29.3697C1.06683 30.4088 0.855479 31.5085 0.855479 32.6385V33.7806V33.7786ZM106.901 29.6851C106.405 28.2922 105.556 27.0369 104.445 26.0524L105.01 25.4076C106.23 26.487 107.162 27.8657 107.706 29.396L106.901 29.6851ZM4.07208 25.8341L3.53061 25.169C4.78867 24.136 6.29632 23.4406 7.88852 23.1536L8.03949 23.9986C6.58819 24.2593 5.21741 24.8941 4.07006 25.8341H4.07208ZM100.55 24.0653C99.936 23.9298 99.3019 23.8611 98.6679 23.8611H96.0229V23.002H98.6679C99.3643 23.002 100.059 23.0767 100.733 23.2263L100.55 24.0653ZM91.3873 23.8611H86.7516V23.002H91.3873V23.8611ZM82.1179 23.8611H77.4822V23.002H82.1179V23.8611ZM72.8485 23.8611H68.2128V23.002H72.8485V23.8611ZM63.5772 23.8611H58.9415V23.002H63.5772V23.8611ZM54.3078 23.8611H49.6721V23.002H54.3078V23.8611ZM45.0384 23.8611H40.4027V23.002H45.0384V23.8611ZM35.7671 23.8611H31.1314V23.002H35.7671V23.8611ZM26.4977 23.8611H21.862V23.002H26.4977V23.8611ZM17.2283 23.8611H12.5926V23.002H17.2283V23.8611Z" fill="#9192FF"/>
<path d="M126.689 35.7227H27.4517C21.811 35.7227 17.2383 40.3149 17.2383 45.9798V118.166C17.2383 123.831 21.811 128.423 27.4517 128.423H126.689C132.33 128.423 136.903 123.831 136.903 118.166V45.9798C136.903 40.3149 132.33 35.7227 126.689 35.7227Z" fill="#9192FF"/>
<path d="M39.4605 63.2422H27.7817V119.489H39.4605V63.2422Z" fill="white"/>
<path d="M61.1856 73.1406H49.5068V119.488H61.1856V73.1406Z" fill="white"/>
<path d="M82.9107 81.7988H71.2319V119.49H82.9107V81.7988Z" fill="white"/>
<path d="M104.636 87.9043H92.957V119.488H104.636V87.9043Z" fill="white"/>
<path d="M126.361 105.914H114.682V119.489H126.361V105.914Z" fill="white"/>
<path d="M106.039 48.5039H48.1021V53.5476H106.039V48.5039Z" fill="white"/>
<path d="M240.104 18.4249C234.063 21.2327 226.02 25.7528 227.549 33.7883C229.049 41.6702 238.522 40.2471 244.051 38.363C248.147 36.9682 252.103 35.0922 255.746 32.7473C258.111 31.2251 261.438 28.5931 260.631 25.3303C259.937 22.5285 256.7 21.7098 254.212 22.2213C250.603 22.9652 246.485 25.1727 243.656 27.4994C241.09 29.6119 239.091 32.9009 239.594 36.3496C240.053 39.5031 242.646 41.7511 245.531 42.7396C249.126 43.9727 254.001 43.72 257.614 42.6183C259.81 41.9492 261.841 39.9519 260.404 37.5625C258.703 34.7344 255.172 35.4197 252.725 36.6629C249.421 38.3428 245.508 40.5382 243.876 44.0596C242.636 46.7341 242.833 50.0514 245.247 51.988C247.612 53.8862 251.024 53.8923 253.888 53.6739C256.259 53.492 260.13 52.9947 260.506 49.9907C260.887 46.9625 257.179 45.5839 254.822 46.4794C251.173 47.8641 248.886 52.3842 247.779 55.8834C246.473 60.0195 246.495 64.4425 247.765 68.5785C247.926 69.1041 248.751 68.8797 248.59 68.3501C246.938 62.9688 247.511 57.0559 250.339 52.1679C251.694 49.825 254.365 46.1236 257.553 47.1586C259.256 47.7125 260.464 49.736 258.954 51.2603C257.894 52.3317 256.106 52.5924 254.681 52.7461C252.614 52.9684 250.392 53.0574 248.361 52.5318C244.856 51.6261 243.113 48.4423 244.417 44.9693C245.482 42.1352 248.089 40.3562 250.571 38.8684C252.93 37.4554 257.634 34.4959 259.665 37.9951C261.942 41.9148 254.538 42.3292 252.505 42.4849C249.52 42.7113 246.358 42.6041 243.747 40.9526C240.983 39.206 239.745 36.1879 240.752 33.0242C241.762 29.8424 244.393 27.7218 247.203 26.1612C249.395 24.9442 251.966 23.5272 254.44 23.0481C256.183 22.7105 258.385 22.9874 259.423 24.6491C260.667 26.6383 259.184 28.8094 257.749 30.1678C253.729 33.9703 247.656 36.3718 242.463 37.9769C237.052 39.6487 228.177 40.0085 228.254 32.0114C228.32 25.0958 235.132 21.6755 240.535 19.1647C241.034 18.9323 240.599 18.1924 240.104 18.4228V18.4249Z" fill="#1B1B43"/>
<path d="M178.002 58.918C179.387 61.8431 180.647 64.8147 181.875 67.7985L183.67 72.2882L185.391 76.8043L182.823 76.0462L187.132 72.6501C188.572 71.5201 190.039 70.4305 191.492 69.3166L193.248 67.9723L194.059 70.012C194.643 71.4796 195.184 72.9654 195.75 74.4411C196.309 75.9189 196.827 77.4148 197.368 78.9006C197.877 80.3985 198.409 81.8884 198.888 83.4005C199.385 84.9045 199.848 86.4226 200.281 87.9509L199.043 88.4583C198.284 87.0614 197.557 85.6524 196.861 84.2313C196.148 82.8163 195.488 81.379 194.806 79.9518C194.155 78.5104 193.481 77.0792 192.849 75.6318C192.223 74.1824 191.573 72.7411 190.965 71.2835L193.533 71.9789C192.092 73.1049 190.667 74.2531 189.212 75.3609L184.842 78.6802L182.986 80.0892L182.273 77.9202L180.766 73.3273L179.33 68.7081C178.405 65.6173 177.511 62.5163 176.744 59.3688L178.004 58.918H178.002Z" fill="#FFA121"/>
<path d="M299.899 68.3843C299.132 71.5318 298.238 74.6328 297.312 77.7237L295.877 82.3428L294.369 86.9357L293.657 89.1048L291.801 87.6958L287.431 84.3765C285.975 83.2667 284.55 82.1205 283.109 80.9945L285.677 80.2991C285.07 81.7566 284.419 83.1979 283.793 84.6494C283.161 86.0968 282.487 87.528 281.837 88.9694C281.155 90.3965 280.494 91.8338 279.782 93.2489C279.085 94.67 278.359 96.079 277.6 97.4759L276.362 96.9685C276.797 95.4382 277.26 93.9221 277.755 92.4181C278.234 90.906 278.765 89.4181 279.274 87.9182C279.816 86.4324 280.333 84.9385 280.893 83.4587C281.458 81.983 282 80.4972 282.584 79.0296L283.395 76.9899L285.15 78.3342C286.601 79.446 288.071 80.5376 289.51 81.6677L293.82 85.0638L291.251 85.8219L292.972 81.3058L294.768 76.816C295.994 73.8323 297.254 70.8627 298.638 67.9355L299.899 68.3863V68.3843Z" fill="#FFA121"/>
<mask id="mask0_2972_2" style="mask-type:luminance" maskUnits="userSpaceOnUse" x="337" y="33" width="147" height="86">
<path d="M337.393 110.318C337.393 114.993 341.167 118.786 345.825 118.786H475.255C479.911 118.786 483.687 114.995 483.687 110.318V33.4922H337.393V110.318Z" fill="white"/>
</mask>
<g mask="url(#mask0_2972_2)">
<path d="M337.393 110.318C337.393 114.993 341.167 118.786 345.825 118.786H475.255C479.911 118.786 483.687 114.995 483.687 110.318V33.4922H337.393V110.318Z" fill="white"/>
<path opacity="0.6" d="M323.472 63.0757C324.162 56.8252 329.709 51.4743 335.955 51.0336C342.201 50.5929 348.439 55.109 349.995 61.2018C352.968 60.278 356.443 61.2725 358.484 63.6337C360.523 65.9948 361.014 69.5911 359.683 72.4171C365.901 73.4036 369.999 81.144 367.336 86.8729C371.561 85.747 376.262 86.5798 379.849 89.0905C383.433 91.6013 385.837 95.7454 386.243 100.116C387.928 94.2211 393.925 89.8789 400.026 90.1336C406.127 90.3883 411.743 95.2177 412.932 101.232C431.475 72.9124 480.161 81.1056 494.032 112.518L473.905 163.87L354.504 166.601L300.651 105.143L323.472 63.0757Z" fill="#D1D1FF"/>
<path d="M321.225 78.973C325.593 75.6962 330.323 72.7064 335.621 71.4126C340.919 70.1188 346.905 70.7354 351.197 74.1113C355.488 77.4892 357.487 83.948 354.889 88.7612C358.584 88.4297 362.387 90.4289 364.222 93.6674C366.056 96.9058 365.825 101.212 363.651 104.232C367.391 102.352 371.962 102.228 375.794 103.906C379.627 105.584 382.65 109.031 383.826 113.062C389.162 108.568 398.218 109.672 402.328 115.318C411.191 106.848 424.736 102.176 435.974 107.032C442.494 109.848 447.48 115.49 450.853 121.758C454.229 128.027 456.165 134.957 458.077 141.82L356.676 151.03L314.246 137.372L321.223 78.971L321.225 78.973Z" fill="white"/>
<path d="M426.984 51.7689C423.973 50.5095 420.857 50.3538 418.287 51.1119C416.678 49.0964 414.211 47.8047 411.439 47.8047C406.592 47.8047 402.661 51.7507 402.661 56.6205C402.661 57.888 402.932 59.0908 403.412 60.1784C401.703 61.3427 400.577 63.3076 400.577 65.5394C400.577 68.6667 402.786 71.2764 405.722 71.8789C405.67 72.265 405.636 72.6551 405.636 73.0554C405.636 77.9232 409.565 81.8712 414.414 81.8712C418.565 81.8712 422.035 78.9744 422.949 75.087C423.873 75.6005 424.933 75.8956 426.065 75.8956C429.623 75.8956 432.508 72.9988 432.508 69.4247C432.508 68.602 432.349 67.8156 432.069 67.0919C432.979 66.35 433.699 65.4221 434.156 64.3204C436.02 59.8266 432.81 54.2068 426.984 51.7709V51.7689Z" fill="#FFF2E0"/>
<path d="M391.056 46.9855C389.541 46.3508 387.971 46.274 386.676 46.654C385.867 45.6392 384.623 44.9883 383.228 44.9883C380.787 44.9883 378.808 46.9754 378.808 49.4275C378.808 50.0663 378.945 50.6707 379.186 51.2186C378.325 51.8048 377.759 52.7954 377.759 53.9173C377.759 55.492 378.872 56.806 380.35 57.1093C380.324 57.3033 380.306 57.5014 380.306 57.7016C380.306 60.1536 382.284 62.1408 384.726 62.1408C386.815 62.1408 388.562 60.6813 389.023 58.7244C389.488 58.9832 390.024 59.1308 390.591 59.1308C392.383 59.1308 393.836 57.6712 393.836 55.8721C393.836 55.4577 393.756 55.0615 393.615 54.6976C394.074 54.3236 394.436 53.8566 394.666 53.3027C395.604 51.0407 393.987 48.2106 391.054 46.9835L391.056 46.9855Z" fill="#FFF2E0"/>
<path d="M365.43 44.3491C365.656 45.1577 365.539 46.0431 364.871 46.8739C363.3 48.8247 360.521 47.9575 359.822 45.754C359.55 44.8949 359.422 43.9508 359.705 43.0957C360.712 40.0675 364.73 41.8323 365.43 44.3511V44.3491Z" fill="#D1D1FF"/>
<path d="M391.676 77.8997C391.819 78.4131 391.745 78.9751 391.32 79.5027C390.322 80.7419 388.556 80.1901 388.114 78.7912C387.94 78.2454 387.86 77.647 388.039 77.1032C388.679 75.1787 391.229 76.3007 391.674 77.8997H391.676Z" fill="#D1D1FF"/>
<path d="M452.705 53.8587C452.848 54.3721 452.774 54.9341 452.349 55.4617C451.35 56.7009 449.585 56.149 449.142 54.7502C448.969 54.2044 448.889 53.606 449.068 53.0622C449.708 51.1377 452.258 52.2597 452.703 53.8587H452.705Z" fill="#D1D1FF"/>
</g>
<path d="M475.255 119.215H345.825C340.939 119.215 336.966 115.225 336.966 110.319V33.0625H484.116V110.319C484.116 115.225 480.141 119.215 475.255 119.215ZM337.821 33.9216V110.319C337.821 114.752 341.412 118.358 345.825 118.358H475.255C479.67 118.358 483.261 114.752 483.261 110.319V33.9216H337.821Z" fill="#9192FF"/>
<path d="M475.255 0.427734H345.825C341.169 0.427734 337.393 4.21807 337.393 8.89584V33.4916H483.687V8.89584C483.687 4.22009 479.913 0.427734 475.255 0.427734Z" fill="white"/>
<path d="M484.114 33.9209H336.964V8.89666C336.964 3.99046 340.939 0 345.823 0H475.253C480.139 0 484.114 3.99046 484.114 8.89666V33.9209ZM337.821 33.0618H483.261V8.89666C483.261 4.46349 479.67 0.85712 475.255 0.85712H345.825C341.41 0.85712 337.821 4.46349 337.821 8.89666V33.0618Z" fill="#9192FF"/>
<path d="M357.246 23.1136C360.63 23.1136 363.373 20.3586 363.373 16.9601C363.373 13.5616 360.63 10.8066 357.246 10.8066C353.862 10.8066 351.118 13.5616 351.118 16.9601C351.118 20.3586 353.862 23.1136 357.246 23.1136Z" fill="#D1D1FF"/>
<path d="M446.878 22.3972H378.764C375.772 22.3972 373.349 19.9633 373.349 16.9593C373.349 13.9554 375.772 11.5215 378.764 11.5215H446.878C449.869 11.5215 452.292 13.9554 452.292 16.9593C452.292 19.9633 449.869 22.3972 446.878 22.3972Z" fill="white"/>
<path d="M446.88 22.8287H378.766C375.545 22.8287 372.922 20.1967 372.922 16.9602C372.922 13.7238 375.543 11.0918 378.766 11.0918H446.88C450.1 11.0918 452.721 13.7238 452.721 16.9602C452.721 20.1967 450.1 22.8287 446.88 22.8287ZM378.764 11.9509C376.014 11.9509 373.776 14.1989 373.776 16.9602C373.776 19.7216 376.012 21.9695 378.764 21.9695H446.878C449.627 21.9695 451.864 19.7216 451.864 16.9602C451.864 14.1989 449.627 11.9509 446.878 11.9509H378.764Z" fill="#9192FF"/>
<path d="M442.605 73.6762C442.605 73.6762 430.326 62.0687 418.045 61.8281L426.954 67.8724L410.34 64.729L425.749 72.4673L407.691 73.6762C417.365 75.3985 425.914 79.86 432.973 87.942L442.605 73.6762Z" fill="#FFA121"/>
<path opacity="0.6" d="M441.546 78.9224C441.546 78.9224 436.379 70.244 429.903 68.9199L433.925 73.6786L425.489 70.0661L432.759 76.539L423.057 75.6051C427.983 77.6387 431.997 81.3381 434.805 87.2409L441.548 78.9244L441.546 78.9224Z" fill="white"/>
<path d="M486.971 100.522C480.405 88.9832 484.495 73.7087 478.176 69.791L465.634 85.389L486.971 100.522Z" fill="#3335CF"/>
<path d="M478.176 69.7907L476.554 69.6168C474.825 69.4308 473.1 69.9968 471.814 71.1713L461.21 80.8524L465.636 85.3906L478.178 69.7927L478.176 69.7907Z" fill="#C5C5FF"/>
<path d="M468.41 123.607C455.795 119.59 441.787 126.821 436.645 121.442L449.187 105.844L468.41 123.605V123.607Z" fill="#3335CF"/>
<path d="M436.644 121.441L436.133 119.885C435.588 118.227 435.775 116.414 436.649 114.904L443.839 102.455L449.187 105.845L436.644 121.443V121.441Z" fill="#C5C5FF"/>
<path d="M500 130.236L495.439 117.377L486.524 128.465L500 130.236Z" fill="#1B1B43"/>
<path d="M437.357 93.0135C446.558 112.778 463.504 128.226 486.528 128.459L495.439 117.377C490.364 94.8227 471.759 81.4383 450.584 76.5645L437.357 93.0135Z" fill="#C5C5FF"/>
<path d="M450.584 76.5652L445.694 69.3262L429.275 89.7414L437.357 93.0142L450.584 76.5652Z" fill="#3335CF"/>
<path d="M432.564 75.5444C433.208 74.7439 434.376 74.6185 435.175 75.2654L451.9 88.8297C452.697 89.4766 452.822 90.6491 452.178 91.4516C451.534 92.2522 450.366 92.3775 449.567 91.7306L432.842 78.1663C432.045 77.5194 431.92 76.3469 432.564 75.5444Z" fill="#1B1B43"/>
<path d="M485.755 112.577C485.87 108.261 482.48 104.668 478.183 104.552C473.886 104.436 470.308 107.841 470.193 112.156C470.077 116.472 473.467 120.065 477.765 120.181C482.062 120.297 485.639 116.892 485.755 112.577Z" fill="white"/>
<path d="M478.476 117.088C481.088 116.808 482.98 114.455 482.702 111.832C482.424 109.208 480.081 107.308 477.469 107.588C474.856 107.867 472.964 110.22 473.243 112.844C473.521 115.467 475.864 117.367 478.476 117.088Z" fill="#1B1B43"/>
<path d="M479.919 112.547C479.545 112.243 479.487 111.694 479.789 111.318C480.091 110.942 480.638 110.883 481.012 111.186C481.387 111.489 481.445 112.039 481.143 112.415C480.841 112.791 480.294 112.85 479.919 112.547Z" fill="white"/>
<path d="M277.378 157.089L247.668 155.277L208.902 165.565C195.307 169.171 184.27 179.131 179.258 192.322L155.035 256.025L202.634 213.667L215.744 280.356L304.663 280.069L304.377 187.476L277.376 157.089H277.378Z" fill="#3335CF"/>
<path d="M253.675 191.658C248.29 191.658 243.262 189.552 239.937 185.83L240.573 185.256C244.131 189.239 249.757 191.28 255.615 190.704C261.893 190.092 267.378 186.566 270.667 181.029L271.402 181.47C267.972 187.241 262.249 190.921 255.699 191.559C255.021 191.624 254.345 191.658 253.677 191.658H253.675Z" fill="#C5C5FF"/>
<path d="M257.37 180.007C251.676 182.772 244.683 180.041 241.819 173.928L240.852 171.858L231.054 150.95L225.059 138.147L254.019 124.092L266.63 151.002C271.811 162.07 267.68 175.002 257.37 180.007Z" fill="#FFBC96"/>
<path d="M256.78 145.547C254.232 158.016 247.863 166.558 240.852 171.857L231.054 150.948L256.78 145.547Z" fill="#1B1B43"/>
<path d="M260.178 129.945C260.178 145.001 251.726 155.323 241.003 160.644C229.969 166.118 218.447 145.082 212.944 131.018C207.231 116.421 222.958 105.473 236.122 105.473C249.286 105.473 260.178 114.887 260.178 129.945Z" fill="#FFBC96"/>
<path d="M260.774 121.36C259.492 105.904 256.364 91.2945 242.106 95.0282C236.692 87.4435 214.035 87.5871 208.477 105.619C204.892 117.251 193.372 122.935 193.372 122.935C207.195 130.233 219.936 127.5 237.69 113.919C243.248 122.076 259.065 122.648 259.065 122.648L260.776 121.36H260.774Z" fill="#1B1B43"/>
<path d="M265.201 128.633C265.824 123.753 263.25 119.4 259.451 118.911C255.653 118.421 252.068 121.981 251.445 126.861C250.821 131.741 253.395 136.094 257.194 136.583C260.993 137.073 264.577 133.513 265.201 128.633Z" fill="#FFBC96"/>
<path d="M259.703 124.058C258.783 124.821 258.479 125.854 258.489 126.959C258.495 127.505 258.582 128.061 258.741 128.589C258.908 129.116 259.131 129.616 259.512 130.052L259.258 130.487C258.554 130.254 258.028 129.66 257.706 129.031C257.376 128.393 257.215 127.681 257.215 126.963C257.221 126.248 257.38 125.506 257.779 124.873C258.163 124.238 258.805 123.745 259.496 123.602L259.705 124.058H259.703Z" fill="#1B1B43"/>
<path d="M235.816 135.823C237.007 135.744 237.901 134.592 237.813 133.251C237.724 131.91 236.687 130.887 235.495 130.966C234.304 131.045 233.41 132.197 233.498 133.538C233.587 134.879 234.624 135.902 235.816 135.823Z" fill="#1B1B43"/>
<path d="M225.118 139.784C226.127 139.392 226.591 138.152 226.153 137.015C225.715 135.878 224.541 135.274 223.531 135.667C222.522 136.059 222.058 137.299 222.496 138.436C222.934 139.573 224.108 140.176 225.118 139.784Z" fill="#1B1B43"/>
<path d="M241.525 127.097C241.569 127.778 237.97 127.558 236.422 127.887C235.102 128.168 233.089 129.46 232.183 128.17C231.366 127.006 233.421 125.688 235.967 125.518C238.513 125.348 241.48 126.418 241.525 127.099V127.097Z" fill="#1B1B43"/>
<path d="M218.32 134.58C218.725 135.137 220.563 133.219 221.619 132.726C222.521 132.305 224.439 132.348 224.123 130.892C223.837 129.58 221.879 129.538 220.373 130.64C218.868 131.741 217.916 134.022 218.32 134.58Z" fill="#1B1B43"/>
<path d="M232.734 149.904C233.558 148.907 234.735 148.263 235.927 147.858C237.133 147.462 238.37 147.288 239.622 147.379L239.715 147.874C238.58 148.416 237.43 148.717 236.323 149.077C235.206 149.425 234.157 149.837 233.036 150.306L232.736 149.904H232.734Z" fill="#1B1B43"/>
<path d="M229.494 139.119C229.556 140.055 229.419 141.049 228.938 141.961C228.707 142.414 228.373 142.824 228.034 143.166C227.702 143.507 227.366 143.795 227.286 143.999C227.259 144.102 227.215 144.183 227.237 144.338C227.231 144.431 227.257 144.437 227.251 144.452C227.253 144.474 227.29 144.506 227.312 144.547C227.471 144.726 227.847 144.91 228.224 145.05C229.001 145.329 229.88 145.515 230.748 145.721L230.736 146.224C229.802 146.352 228.874 146.346 227.912 146.135C227.432 146.016 226.933 145.877 226.426 145.434C226.309 145.303 226.182 145.161 226.102 144.977C226.019 144.779 225.965 144.571 225.967 144.433C225.923 144.136 225.983 143.758 226.13 143.449C226.462 142.836 226.879 142.563 227.185 142.276C227.505 141.997 227.765 141.714 227.998 141.393C228.461 140.748 228.749 139.935 228.99 139.072L229.49 139.123L229.494 139.119Z" fill="#D28572"/>
<path opacity="0.2" d="M252.815 136.949C252.852 133.916 250.434 131.427 247.413 131.39C244.393 131.353 241.915 133.781 241.878 136.815C241.841 139.848 244.259 142.337 247.28 142.374C250.3 142.411 252.778 139.982 252.815 136.949Z" fill="#FE5B52"/>
<path d="M326.908 188.197C318.459 170.353 301.026 158.539 281.388 157.337L277.378 157.088L306.954 224.724L339.327 212.655L326.908 188.197Z" fill="#3335CF"/>
<path d="M223.582 144.113C223.262 139.177 224.115 127.583 221.124 128.871C218.133 130.159 217.384 146.901 217.384 146.901C217.384 146.901 216.958 118.994 213.751 120.282C210.544 121.569 210.544 141.748 203.491 163.214L163.876 247.238C159.111 257.346 165.114 269.253 176.046 271.379C184.065 272.938 192.056 268.567 195.106 260.956C205.365 235.352 224.212 180.096 226.042 169.335C227.537 160.534 227.151 156.727 226.573 154.465C225.617 150.725 223.834 147.966 223.584 144.113H223.582Z" fill="#FFBC96"/>
<path d="M203.737 161.361C204.949 158.05 205.742 154.591 206.48 151.135C207.207 147.672 207.819 144.183 208.447 140.698L210.305 130.224C210.633 128.48 210.971 126.735 211.378 124.999C211.583 124.129 211.802 123.264 212.076 122.401C212.215 121.97 212.366 121.54 212.563 121.111C212.66 120.897 212.775 120.683 212.918 120.468C213.073 120.266 213.238 120.009 213.654 119.878L213.622 119.886C213.745 119.862 213.878 119.848 214.003 119.846C214.121 119.864 214.24 119.91 214.353 119.955C214.534 120.064 214.705 120.201 214.8 120.337C215.033 120.612 215.162 120.893 215.291 121.174C215.536 121.734 215.714 122.298 215.86 122.864C216.16 123.996 216.37 125.134 216.553 126.272C216.909 128.552 217.155 130.841 217.344 133.131C217.714 137.714 217.912 142.305 217.867 146.906L216.895 146.885C217.002 144.288 217.197 141.708 217.489 139.129C217.801 136.553 218.159 133.972 218.966 131.445C219.188 130.816 219.429 130.19 219.802 129.589C219.997 129.294 220.216 128.995 220.542 128.752C220.85 128.492 221.331 128.366 221.77 128.427C221.873 128.451 221.97 128.488 222.07 128.522C222.173 128.567 222.255 128.564 222.384 128.68C222.443 128.726 222.499 128.779 222.551 128.831C222.598 128.882 222.614 128.922 222.646 128.967C222.696 129.054 222.767 129.151 222.797 129.234C222.948 129.573 223.044 129.901 223.127 130.226C223.294 130.879 223.391 131.526 223.485 132.175C223.819 134.768 223.908 137.366 223.886 139.96C223.878 141.268 223.795 142.537 223.908 143.795C224.011 145.056 224.24 146.307 224.564 147.538C224.89 148.769 225.305 149.978 225.756 151.179C226.219 152.368 226.682 153.627 226.941 154.909C227.493 157.478 227.553 160.118 227.316 162.704C227.076 165.293 226.573 167.846 225.901 170.347L225.53 170.25C226.152 167.755 226.603 165.216 226.792 162.661C226.98 160.11 226.869 157.531 226.289 155.056C226.009 153.809 225.583 152.639 225.1 151.43C224.635 150.219 224.204 148.988 223.862 147.726C223.52 146.463 223.274 145.169 223.159 143.857C223.034 142.541 223.111 141.225 223.109 139.954C223.115 137.388 223.008 134.813 222.668 132.288C222.573 131.661 222.475 131.031 222.316 130.434C222.239 130.137 222.147 129.844 222.034 129.595C222.008 129.525 221.974 129.496 221.947 129.442C221.915 129.375 221.895 129.369 221.895 129.369C221.917 129.353 221.827 129.337 221.782 129.318C221.73 129.302 221.678 129.278 221.625 129.264C221.247 129.203 220.834 129.539 220.528 130.048C220.222 130.548 219.997 131.13 219.796 131.718C219.043 134.118 218.695 136.683 218.407 139.226C218.133 141.777 217.956 144.35 217.867 146.91L216.895 146.889C216.937 142.327 216.788 137.752 216.44 133.2C216.265 130.924 216.036 128.651 215.695 126.403C215.522 125.282 215.321 124.162 215.041 123.078C214.904 122.534 214.737 122.003 214.526 121.513C214.421 121.275 214.3 121.03 214.162 120.871C214.095 120.768 214.025 120.737 213.974 120.693C213.952 120.695 213.936 120.679 213.92 120.67C213.904 120.683 213.894 120.685 213.876 120.675L213.844 120.683C213.827 120.683 213.689 120.786 213.592 120.937C213.489 121.091 213.391 121.265 213.306 121.455C213.131 121.831 212.984 122.237 212.849 122.648C212.581 123.472 212.36 124.323 212.153 125.178C211.742 126.891 211.394 128.625 211.058 130.362L209.139 140.817C208.507 144.306 207.817 147.787 207.032 151.25C206.233 154.707 205.379 158.165 204.097 161.493L203.739 161.353L203.737 161.361Z" fill="#D28572"/>
<path d="M354.806 259.854C354.661 269.746 350.368 276.659 344.992 280.644L334.074 280.472L331.372 280.429H331.312L318.478 251.089L318.452 251.02L306.952 224.729L339.321 212.656L351.403 242.435C353.882 249.021 354.883 254.825 354.806 259.856V259.854Z" fill="#FFBC96"/>
<path d="M345.847 248.016L260.871 257.563L249.814 253.975C244.808 252.352 239.327 253.35 235.216 256.647C225.575 264.382 209.9 278.637 213.962 279.784C220.802 281.716 229.735 278.1 237.755 276.078C242.185 274.96 246.865 275.49 250.929 277.58L256.489 280.441L341.143 280.429L345.845 248.016H345.847Z" fill="#FFBC96"/>
<path d="M215.985 278.274C218.278 276.927 220.607 275.648 222.942 274.384C225.271 273.109 227.64 271.912 229.989 270.673C231.146 270.062 232.386 269.436 233.681 268.985C234.975 268.538 236.312 268.213 237.668 268.063C239.025 267.91 240.392 267.895 241.742 268.017C243.091 268.166 244.425 268.427 245.7 268.868L245.569 269.353C244.281 269.1 242.986 268.928 241.688 268.914C240.392 268.872 239.097 268.961 237.825 269.177C236.555 269.391 235.305 269.713 234.101 270.168C232.888 270.596 231.768 271.205 230.567 271.809C228.187 272.988 225.832 274.211 223.435 275.353C221.046 276.509 218.646 277.649 216.213 278.721L215.985 278.272V278.274Z" fill="#D28572"/>
<path d="M217.223 274.01C218.767 272.542 220.38 271.163 222.028 269.823C223.669 268.475 225.361 267.189 227.095 265.954C228.838 264.733 230.601 263.536 232.475 262.501C234.357 261.509 236.273 260.427 238.522 260.215L238.564 260.716C237.592 260.973 236.646 261.353 235.742 261.881C234.818 262.346 233.932 262.91 233.049 263.467C231.281 264.589 229.556 265.798 227.831 267.001C226.104 268.206 224.409 269.463 222.688 270.686C220.977 271.923 219.273 273.177 217.545 274.398L217.225 274.01H217.223Z" fill="#D28572"/>
<path d="M329.742 250.07L318.343 250.352L318.374 251.639L329.774 251.357L329.742 250.07Z" fill="#D28572"/>
<path d="M299.06 207.629L298.292 208.008L306.567 224.934L307.335 224.556L299.06 207.629Z" fill="#EBEBFF"/>
<path opacity="0.2" d="M354.806 259.855C354.661 269.746 350.368 276.66 344.991 280.644L334.073 280.472C334.065 280.456 334.065 280.446 334.065 280.43C333.663 278.997 333.449 277.485 333.449 275.922C333.449 268.82 337.844 262.758 344.059 260.32C345.939 259.582 347.985 259.178 350.122 259.178C351.747 259.178 353.321 259.41 354.808 259.857L354.806 259.855Z" fill="#FE5B52"/>
<path d="M219.447 270.074H170.713V280.378H219.447V270.074Z" fill="#1B1B43"/>
<path d="M187.243 280.379H109.866L87.6353 202.67H165.013L187.243 280.379Z" fill="#EBEBFF"/>
<path d="M109.558 280.467L87.2104 202.348H111.148V202.991H88.0619L110.174 280.289L109.558 280.467Z" fill="#1B1B43"/>
<path d="M178.956 251.97L164.773 202.991H129.103V202.348H165.254L179.572 251.788L178.956 251.97Z" fill="#1B1B43"/>
<path d="M188.274 15.0102C189.284 11.6009 187.351 8.0148 183.956 7.00039C180.561 5.98598 176.99 7.92741 175.98 11.3367C174.97 14.746 176.903 18.3321 180.298 19.3465C183.693 20.3609 187.264 18.4195 188.274 15.0102Z" fill="#EBEBFF"/>
<path d="M54.2124 168.768C55.261 164.307 52.5096 159.836 48.0671 158.783C43.6245 157.73 39.1731 160.493 38.1246 164.955C37.0761 169.416 39.8275 173.887 44.27 174.94C48.7125 175.993 53.1639 173.23 54.2124 168.768Z" fill="#EBEBFF"/>
<path d="M451.012 189.625C454.554 189.625 457.425 186.742 457.425 183.185C457.425 179.628 454.554 176.744 451.012 176.744C447.47 176.744 444.599 179.628 444.599 183.185C444.599 186.742 447.47 189.625 451.012 189.625Z" fill="#EBEBFF"/>
<path d="M443.003 187.401L442.987 186.542C444.021 186.522 445.04 186.344 446.012 186.008L446.29 186.821C445.233 187.185 444.128 187.379 443.005 187.401H443.003ZM439.698 186.95C438.625 186.629 437.612 186.142 436.687 185.503L437.172 184.795C438.023 185.381 438.955 185.83 439.943 186.127L439.698 186.95ZM449.239 185.256L448.728 184.567C449.555 183.946 450.28 183.204 450.879 182.363L451.574 182.863C450.924 183.776 450.137 184.581 449.237 185.256H449.239ZM434.259 183.204C433.571 182.313 433.027 181.326 432.643 180.271L433.446 179.978C433.798 180.948 434.299 181.858 434.933 182.679L434.259 183.204ZM453.073 179.871L452.258 179.608C452.572 178.626 452.731 177.599 452.731 176.558C452.731 176.293 452.721 176.032 452.701 175.773L453.553 175.704C453.575 175.985 453.587 176.27 453.585 176.558C453.585 177.686 453.412 178.799 453.071 179.869L453.073 179.871ZM432.003 176.986C431.996 176.845 431.994 176.703 431.992 176.56C431.992 175.571 432.125 174.595 432.385 173.655L433.208 173.883C432.969 174.748 432.848 175.648 432.848 176.556C432.848 176.685 432.852 176.818 432.856 176.95L432.003 176.984V176.986ZM451.993 172.771C451.602 171.815 451.067 170.928 450.4 170.133L451.055 169.581C451.777 170.444 452.359 171.407 452.784 172.446L451.993 172.771ZM434.478 171.077L433.764 170.604C434.38 169.664 435.133 168.829 436.004 168.122L436.542 168.789C435.738 169.44 435.044 170.208 434.476 171.075L434.478 171.077ZM448.084 168.106C447.21 167.552 446.262 167.141 445.261 166.885L445.473 166.052C446.558 166.331 447.59 166.777 448.538 167.378L448.082 168.104L448.084 168.106ZM439.201 167.244L438.893 166.444C439.935 166.038 441.032 165.799 442.154 165.734L442.202 166.591C441.171 166.652 440.161 166.87 439.201 167.244Z" fill="#9192FF"/>
<path d="M299.248 32.0597C296.656 32.0597 294.546 29.9412 294.546 27.3375C294.546 24.7338 296.656 22.6152 299.248 22.6152C301.841 22.6152 303.95 24.7338 303.95 27.3375C303.95 29.9412 301.841 32.0597 299.248 32.0597ZM299.248 23.4724C297.127 23.4724 295.402 25.2048 295.402 27.3355C295.402 29.4661 297.127 31.2006 299.248 31.2006C301.37 31.2006 303.095 29.4661 303.095 27.3355C303.095 25.2048 301.37 23.4724 299.248 23.4724Z" fill="#9192FF"/>
<path d="M462.838 279.713H41.6084V281.003H462.838V279.713Z" fill="#1B1B43"/>
</g>
<defs>
<clipPath id="clip0_2972_2">
<rect width="500" height="281" fill="white"/>
</clipPath>
</defs>
</svg>
